<svg version="1.1"
  xmlns="http://www.w3.org/2000/svg"
  xmlns:xlink="http://www.w3.org/1999/xlink" width="73px" height="26px" viewBox="0,0,256,91.17188">
  <g fill="#ffe44e" fill-rule="nonzero" stroke="none" stroke-width="1" stroke-linecap="butt" stroke-linejoin="miter" stroke-miterlimit="10" stroke-dasharray="" stroke-dashoffset="0" font-family="none" font-weight="none" font-size="none" text-anchor="none" style="mix-blend-mode: normal">
    <g transform="translate(-0.00002,-0.00311) scale(1,1.00007)">
      <g>
        <g transform="translate(0,-0.0031) scale(3.50685,3.50685)">
          <g>
            <path d="M1.2,11.9v-11.7h6c1.1,0 2,0.1 2.6,0.3c0.6,0.2 1.1,0.6 1.4,1.1c0.4,0.6 0.6,1.2 0.5,1.9c0,1.2 -0.5,2.2 -1.6,2.8c-0.3,0.2 -0.7,0.4 -1.2,0.4c0.3,0.1 0.7,0.3 1,0.5c0.2,0.2 0.4,0.4 0.6,0.6c0.2,0.2 0.4,0.5 0.5,0.7l1.8,3.4h-4.2l-1.9,-3.6c-0.3,-0.4 -0.5,-0.7 -0.7,-0.9c-0.3,-0.2 -0.6,-0.3 -0.9,-0.3h-0.3v4.7zM4.8,4.9h1.5c0.3,0 0.6,-0.1 1,-0.2c0.2,0 0.4,-0.2 0.6,-0.4c0.4,-0.5 0.3,-1.1 -0.1,-1.5c-0.3,-0.1 -0.8,-0.2 -1.4,-0.2h-1.6zM0.4,21.9l3.4,-0.2c0.1,0.6 0.2,1 0.5,1.3c0.4,0.5 0.9,0.7 1.6,0.7c0.5,0 0.9,-0.1 1.2,-0.4c0.3,-0.2 0.4,-0.5 0.4,-0.8c0,-0.3 -0.1,-0.6 -0.4,-0.8c-0.3,-0.2 -0.9,-0.5 -1.9,-0.7c-1.6,-0.4 -2.7,-0.8 -3.4,-1.4c-0.7,-0.6 -1,-1.4 -1,-2.3c0,-0.6 0.2,-1.2 0.5,-1.7c0.4,-0.6 0.9,-1 1.6,-1.3c0.7,-0.3 1.7,-0.5 2.9,-0.5c1.5,0 2.6,0.3 3.4,0.8c0.8,0.6 1.2,1.4 1.4,2.7l-3.4,0.2c-0.1,-0.5 -0.3,-0.9 -0.6,-1.2c-0.3,-0.2 -0.7,-0.4 -1.2,-0.4c-0.4,0 -0.7,0.1 -0.9,0.3c-0.2,0.2 -0.3,0.4 -0.3,0.7c0,0.2 0.1,0.4 0.3,0.5c0.2,0.2 0.6,0.3 1.2,0.4c1.6,0.3 2.7,0.7 3.4,1c0.7,0.4 1.2,0.8 1.5,1.3c0.3,0.5 0.5,1.1 0.5,1.7c0,0.7 -0.2,1.5 -0.6,2.1c-0.4,0.6 -1,1.1 -1.7,1.4c-0.9,0.5 -1.9,0.7 -3,0.7c-2,0 -3.4,-0.4 -4.1,-1.2c-0.8,-0.7 -1.2,-1.7 -1.3,-2.9z"></path>
            <path d="M17.7,21l3.2,1c-0.2,0.8 -0.5,1.6 -1,2.2c-0.4,0.6 -1,1 -1.7,1.3c-0.7,0.3 -1.5,0.5 -2.6,0.5c-1.3,0 -2.3,-0.2 -3.1,-0.5c-0.8,-0.4 -1.5,-1 -2.1,-1.9c-0.6,-0.9 -0.9,-2.1 -0.9,-3.6c0,-1.9 0.5,-3.4 1.5,-4.5c1,-1.1 2.5,-1.6 4.4,-1.6c1.5,0 2.6,0.3 3.5,0.9c0.8,0.6 1.5,1.5 1.9,2.7l-3.2,0.7c-0.1,-0.3 -0.2,-0.5 -0.4,-0.8c-0.2,-0.3 -0.4,-0.5 -0.7,-0.6c-0.3,-0.1 -0.6,-0.2 -1,-0.2c-0.8,0 -1.5,0.3 -1.9,1c-0.3,0.5 -0.5,1.3 -0.5,2.3c0,1.3 0.2,2.2 0.6,2.7c0.4,0.5 0.9,0.7 1.7,0.7c0.7,0 1.2,-0.2 1.6,-0.6c0.3,-0.4 0.6,-1 0.7,-1.7zM25.1,14.1h3.6v4.1h3.9v-4.1h3.6v11.7h-3.6v-4.7h-3.9v4.7h-3.6z"></path>
            <path d="M35.8,19.9c0,-1.9 0.5,-3.4 1.6,-4.5c1.1,-1.1 2.6,-1.6 4.4,-1.6c1.9,0 3.4,0.5 4.5,1.6c1.1,1.1 1.7,2.6 1.7,4.5c0,1.4 -0.2,2.5 -0.7,3.4c-0.4,0.9 -1.1,1.6 -2,2c-0.9,0.5 -2,0.7 -3.3,0.7c-1.3,0 -2.4,-0.2 -3.3,-0.6c-0.9,-0.4 -1.6,-1.1 -2.1,-2c-0.5,-0.9 -0.8,-2.1 -0.8,-3.5zM39.4,20c0,1.2 0.2,2 0.7,2.6c0.4,0.5 1,0.8 1.8,0.8c0.8,0 1.4,-0.2 1.8,-0.8c0.4,-0.5 0.6,-1.4 0.6,-2.7c0,-1.1 -0.2,-1.9 -0.7,-2.4c-0.4,-0.5 -1,-0.8 -1.8,-0.8c-0.7,0 -1.3,0.3 -1.8,0.8c-0.5,0.5 -0.6,1.3 -0.6,2.5z"></path>
            <path d="M63.4,14.1h3.6v8.8h5.6v2.9h-9.3z"></path>
            <path d="M61.9,3.1c-2.3,-3 -7,-3.2 -10.7,-0.5c-3.7,2.7 -4.7,7.4 -2.4,10.4c2.3,3 7,3.2 10.7,0.5c3.6,-2.8 4.7,-7.5 2.4,-10.4zM59.3,13.2c-1.7,1.3 -3.7,2 -5.7,1.9c-1.9,-0.1 -3.6,-0.9 -4.6,-2.3c-1,-1.4 -1.4,-3.2 -0.9,-5.1c0.5,-1.9 1.7,-3.7 3.4,-4.9c1.7,-1.3 3.7,-2 5.7,-1.9c1.8,0.1 3.5,0.9 4.5,2.3c1,1.4 1.4,3.2 0.9,5.1c-0.4,1.9 -1.6,3.6 -3.3,4.9z"></path>
            <g>
              <path d="M51.7,7.2l1.3,-1l1.6,2.3c0.3,0.4 0.5,0.8 0.6,1.2c0.1,0.3 0.1,0.7 -0.1,1c-0.2,0.4 -0.4,0.7 -0.8,1c-0.4,0.3 -0.8,0.5 -1.1,0.5c-0.3,0.1 -0.6,0 -0.9,-0.1c-0.3,-0.2 -0.6,-0.4 -0.8,-0.7l1.1,-1c0.1,0.1 0.2,0.3 0.3,0.4c0.1,0.1 0.2,0.1 0.3,0.1c0.1,0 0.2,0 0.2,-0.1c0.1,-0.1 0.2,-0.2 0.2,-0.4c0,-0.2 -0.1,-0.4 -0.3,-0.6zM55.6,8.6l1.2,-0.9c0.1,0.2 0.3,0.3 0.5,0.3c0.3,0.1 0.5,0 0.8,-0.1c0.2,-0.1 0.3,-0.2 0.3,-0.4c0.1,-0.2 -0.1,-0.5 -0.3,-0.6h-0.1c-0.2,0 -0.4,0.1 -0.8,0.2c-0.7,0.3 -1.2,0.4 -1.6,0.3c-0.4,0 -0.7,-0.2 -0.9,-0.6c-0.2,-0.2 -0.2,-0.5 -0.2,-0.7c0,-0.3 0.1,-0.6 0.2,-0.9c0.2,-0.4 0.5,-0.7 0.9,-0.9c0.5,-0.4 1,-0.6 1.5,-0.6c0.4,0 0.8,0.2 1.2,0.6l-1.3,1c-0.2,-0.3 -0.7,-0.4 -1,-0.1v0c-0.1,0.1 -0.2,0.2 -0.3,0.3c0,0.1 0,0.2 0.1,0.3c0,0.1 0.1,0.2 0.1,0.2c0.1,0 0.3,0 0.5,-0.2c0.7,-0.3 1.2,-0.4 1.5,-0.5c0.3,-0.1 0.6,0 0.9,0.1c0.2,0.1 0.5,0.3 0.6,0.5c0.2,0.3 0.3,0.6 0.3,0.9c0,0.3 -0.1,0.7 -0.3,1c-0.2,0.4 -0.5,0.7 -0.9,0.9c-0.7,0.5 -1.3,0.7 -1.8,0.6c-0.4,-0.1 -0.8,-0.3 -1.1,-0.7z"></path>
            </g>
            <path d="M48.1,7.8c0,-0.2 0.1,-0.4 0.1,-0.5c-0.1,-0.3 -0.2,-0.6 -0.4,-0.9c-0.3,-0.5 -0.8,-0.9 -1.5,-1.3c-0.7,-0.4 -1.8,-0.7 -3.4,-1c-0.6,-0.1 -1,-0.3 -1.2,-0.4c-0.2,-0.1 -0.3,-0.3 -0.3,-0.5c0,-0.3 0.1,-0.5 0.3,-0.7c0.2,-0.2 0.5,-0.3 0.9,-0.3c0.5,0 0.9,0.1 1.2,0.4c0.3,0.2 0.5,0.6 0.6,1.2l3.4,-0.2c-0.1,-1.2 -0.6,-2.1 -1.4,-2.7c-0.7,-0.6 -1.8,-0.9 -3.3,-0.9c-1.2,0 -2.2,0.2 -2.9,0.5c-0.6,0.2 -1.2,0.7 -1.6,1.3c-0.3,0.5 -0.5,1.1 -0.5,1.7c0,0.9 0.4,1.7 1,2.3c0.7,0.6 1.8,1.1 3.4,1.4c1,0.2 1.6,0.4 1.8,0.7c0.2,0.2 0.4,0.5 0.4,0.8c0,0.3 -0.2,0.6 -0.4,0.8c-0.3,0.2 -0.7,0.4 -1.2,0.4c-0.7,0 -1.2,-0.2 -1.6,-0.7c-0.2,-0.3 -0.4,-0.7 -0.5,-1.3l-3.3,0.1c0.1,1.2 0.5,2.1 1.3,2.9c0.8,0.8 2.1,1.2 4.1,1.2c1.1,0 2.1,-0.2 2.8,-0.5c0.7,-0.3 1.3,-0.8 1.7,-1.4c0.1,-0.1 0.1,-0.2 0.2,-0.3c0,-0.7 0.1,-1.4 0.3,-2.1z"></path>
            <path d="M62.2,15.5c-1,-1 -2.3,-1.5 -4,-1.6c-1.4,0.8 -3,1.2 -4.5,1.2c-0.2,0.1 -0.3,0.3 -0.5,0.4c-1.1,1.1 -1.6,2.6 -1.6,4.5c0,1.4 0.3,2.5 0.8,3.4c0.5,0.9 1.2,1.5 2.1,2c0.9,0.4 1.9,0.6 3.3,0.6c1.3,0 2.4,-0.2 3.3,-0.7c0.9,-0.5 1.5,-1.2 2,-2c0.5,-0.9 0.7,-2 0.7,-3.4c0,-1.9 -0.6,-3.4 -1.6,-4.4zM59.5,22.5c-0.4,0.5 -1,0.8 -1.8,0.8c-0.8,0 -1.4,-0.3 -1.8,-0.8c-0.4,-0.5 -0.7,-1.4 -0.7,-2.6c0,-1.2 0.2,-2 0.7,-2.6c0.4,-0.5 1.1,-0.8 1.8,-0.8c0.8,0 1.4,0.2 1.8,0.8c0.4,0.5 0.7,1.3 0.7,2.4c0,1.4 -0.3,2.3 -0.7,2.8z"></path>
          </g>
        </g>
      </g>
    </g>
  </g>
</svg>