<svg xmlns="http://www.w3.org/2000/svg" xmlns:xlink="http://www.w3.org/1999/xlink" viewBox="0,0,256,256" width="96px" height="96px" fill-rule="nonzero"><g transform="translate(-12.8,-12.8) scale(1.1,1.1)"><g fill="none" fill-rule="nonzero" stroke="none" stroke-width="1" stroke-linecap="butt" stroke-linejoin="miter" stroke-miterlimit="10" stroke-dasharray="" stroke-dashoffset="0" font-family="none" font-weight="none" font-size="none" text-anchor="none" style="mix-blend-mode: normal"><g transform="scale(2.56,2.56)"><path d="M26.5,93c-8.547,0 -15.5,-6.953 -15.5,-15.5v-51c0,-8.547 6.953,-15.5 15.5,-15.5h51c8.547,0 15.5,6.953 15.5,15.5v51c0,8.547 -6.953,15.5 -15.5,15.5z" fill="#000000" opacity="0.35"></path><path d="M24.5,91c-8.547,0 -15.5,-6.953 -15.5,-15.5v-51c0,-8.547 6.953,-15.5 15.5,-15.5h51c8.547,0 15.5,6.953 15.5,15.5v51c0,8.547 -6.953,15.5 -15.5,15.5z" fill="#f2f2f2"></path><path d="M75.5,15.5h-51c-4.971,0 -9,4.029 -9,9v51c0,4.971 4.029,9 9,9h51c4.971,0 9,-4.029 9,-9v-51c0,-4.971 -4.029,-9 -9,-9z" fill="#2b59a1"></path><path d="M75.5,86h-51c-5.79,0 -10.5,-4.71 -10.5,-10.5v-51c0,-5.79 4.71,-10.5 10.5,-10.5h51c5.79,0 10.5,4.71 10.5,10.5v51c0,5.79 -4.71,10.5 -10.5,10.5zM24.5,17c-4.136,0 -7.5,3.364 -7.5,7.5v51c0,4.136 3.364,7.5 7.5,7.5h51c4.136,0 7.5,-3.364 7.5,-7.5v-51c0,-4.136 -3.364,-7.5 -7.5,-7.5z" fill="#40396e"></path><g fill="#70bfff"><path d="M32.248,34.029c0,-0.206 0.149,-0.378 0.353,-0.401c0.776,-0.085 2.94,-0.262 7.557,-0.262c6.958,0 11.831,2.76 11.831,10.311c0,6.811 -4.637,10.807 -12.118,10.807c-0.436,0 -0.873,0 -2.358,0v11.407c0,0.19 -0.155,0.345 -0.345,0.345h-4.573c-0.19,0 -0.345,-0.155 -0.345,-0.345v-31.862zM37.514,49.689c0,0 2.302,0.016 2.822,0.016c4.272,0 6.215,-2.533 6.215,-5.926c0,-3.178 -1.889,-5.657 -5.837,-5.657c-1.627,0 -3.198,0.093 -3.198,0.093v11.475h-0.002z"></path><path d="M54.839,60.399c0,-0.184 0.2,-0.299 0.353,-0.198c0.977,0.654 2.961,1.772 6.033,1.772c2.005,0 3.273,-0.863 3.273,-2.271c0,-1.559 -2.143,-2.69 -3.911,-3.65c-1.759,-0.954 -5.709,-2.486 -5.709,-7.42c0,-4.373 3.495,-7.01 8.253,-7.01c1.823,0 3.834,0.283 5.191,0.778c0.223,0.081 0.359,0.299 0.359,0.537v4.443c0,0.182 -0.192,0.301 -0.345,0.2c-0.851,-0.557 -2.729,-1.408 -5.312,-1.408c-2.151,0 -3.097,1.047 -3.097,2.114c0,1.869 2.49,2.651 4.724,3.962c3.485,1.939 5.1,3.834 5.1,6.803c0,4.856 -3.621,7.582 -8.525,7.582c-2.533,0 -4.914,-0.553 -6.132,-1.293c-0.169,-0.103 -0.254,-0.289 -0.254,-0.487z"></path></g></g></g></g></svg>